<?xml version="1.0" encoding="UTF-8" standalone="no"?>
<svg
   xmlns:dc="http://purl.org/dc/elements/1.1/"
   xmlns:cc="http://creativecommons.org/ns#"
   xmlns:rdf="http://www.w3.org/1999/02/22-rdf-syntax-ns#"
   xmlns:svg="http://www.w3.org/2000/svg"
   xmlns="http://www.w3.org/2000/svg"
   xmlns:sodipodi="http://sodipodi.sourceforge.net/DTD/sodipodi-0.dtd"
   xmlns:inkscape="http://www.inkscape.org/namespaces/inkscape"
   inkscape:export-ydpi="576"
   inkscape:export-xdpi="576"
   inkscape:export-filename="E:\Filedline\5 - Noodles.png"
   width="64pt"
   height="64pt"
   viewBox="0 0 22.577778 22.577778"
   version="1.1"
   id="svg831"
   inkscape:version="1.0 (4035a4fb49, 2020-05-01)"
   sodipodi:docname="EXPORT 64px.svg">
  <defs
     id="defs825">
    <pattern
       id="EMFhbasepattern"
       patternUnits="userSpaceOnUse"
       width="6"
       height="6"
       x="0"
       y="0" />
    <pattern
       id="EMFhbasepattern-9"
       patternUnits="userSpaceOnUse"
       width="6"
       height="6"
       x="0"
       y="0" />
    <pattern
       id="EMFhbasepattern-0"
       patternUnits="userSpaceOnUse"
       width="6"
       height="6"
       x="0"
       y="0" />
    <pattern
       id="EMFhbasepattern-7"
       patternUnits="userSpaceOnUse"
       width="6"
       height="6"
       x="0"
       y="0" />
    <pattern
       id="EMFhbasepattern-2"
       patternUnits="userSpaceOnUse"
       width="6"
       height="6"
       x="0"
       y="0" />
    <pattern
       id="EMFhbasepattern-98"
       patternUnits="userSpaceOnUse"
       width="6"
       height="6"
       x="0"
       y="0" />
    <pattern
       id="EMFhbasepattern-6"
       patternUnits="userSpaceOnUse"
       width="6"
       height="6"
       x="0"
       y="0" />
    <pattern
       id="EMFhbasepattern-01"
       patternUnits="userSpaceOnUse"
       width="6"
       height="6"
       x="0"
       y="0" />
    <pattern
       id="EMFhbasepattern-07"
       patternUnits="userSpaceOnUse"
       width="6"
       height="6"
       x="0"
       y="0" />
    <pattern
       id="EMFhbasepattern-8"
       patternUnits="userSpaceOnUse"
       width="6"
       height="6"
       x="0"
       y="0" />
    <pattern
       id="EMFhbasepattern-4"
       patternUnits="userSpaceOnUse"
       width="6"
       height="6"
       x="0"
       y="0" />
    <pattern
       id="EMFhbasepattern-40"
       patternUnits="userSpaceOnUse"
       width="6"
       height="6"
       x="0"
       y="0" />
    <pattern
       id="EMFhbasepattern-08"
       patternUnits="userSpaceOnUse"
       width="6"
       height="6"
       x="0"
       y="0" />
    <pattern
       id="EMFhbasepattern-04"
       patternUnits="userSpaceOnUse"
       width="6"
       height="6"
       x="0"
       y="0" />
    <pattern
       id="EMFhbasepattern-014"
       patternUnits="userSpaceOnUse"
       width="6"
       height="6"
       x="0"
       y="0" />
    <pattern
       id="EMFhbasepattern-27"
       patternUnits="userSpaceOnUse"
       width="6"
       height="6"
       x="0"
       y="0" />
    <pattern
       id="EMFhbasepattern-09"
       patternUnits="userSpaceOnUse"
       width="6"
       height="6"
       x="0"
       y="0" />
    <pattern
       id="EMFhbasepattern-5"
       patternUnits="userSpaceOnUse"
       width="6"
       height="6"
       x="0"
       y="0" />
    <pattern
       id="EMFhbasepattern-018"
       patternUnits="userSpaceOnUse"
       width="6"
       height="6"
       x="0"
       y="0" />
  </defs>
  <sodipodi:namedview
     id="base"
     pagecolor="#ffffff"
     bordercolor="#666666"
     borderopacity="1.0"
     inkscape:pageopacity="0.0"
     inkscape:pageshadow="2"
     inkscape:zoom="3.3909162"
     inkscape:cx="9.805947"
     inkscape:cy="23.142722"
     inkscape:document-units="pt"
     inkscape:current-layer="g1692"
     showgrid="false"
     units="pt"
     inkscape:window-width="1366"
     inkscape:window-height="715"
     inkscape:window-x="-8"
     inkscape:window-y="-8"
     inkscape:window-maximized="1"
     inkscape:pagecheckerboard="true"
     inkscape:showpageshadow="false"
     inkscape:object-paths="true"
     inkscape:snap-intersection-paths="true"
     inkscape:snap-smooth-nodes="true"
     inkscape:snap-midpoints="true"
     showguides="true"
     inkscape:snap-bbox="true"
     inkscape:bbox-nodes="true"
     inkscape:snap-nodes="false"
     inkscape:snap-global="true"
     inkscape:document-rotation="0">
    <inkscape:grid
       type="xygrid"
       id="grid1378" />
    <sodipodi:guide
       position="0.97013831,21.607643"
       orientation="78.000048,0"
       id="guide1380"
       inkscape:locked="false" />
    <sodipodi:guide
       position="0.97013831,0.97013129"
       orientation="0,78.000005"
       id="guide1382"
       inkscape:locked="false" />
    <sodipodi:guide
       position="21.607639,0.97013129"
       orientation="-78.000048,0"
       id="guide1384"
       inkscape:locked="false" />
    <sodipodi:guide
       position="21.607639,21.607643"
       orientation="0,-78.000005"
       id="guide1386"
       inkscape:locked="false" />
  </sodipodi:namedview>
  <metadata
     id="metadata828">
    <rdf:RDF>
      <cc:Work
         rdf:about="">
        <dc:format>image/svg+xml</dc:format>
        <dc:type
           rdf:resource="http://purl.org/dc/dcmitype/StillImage" />
        <dc:title></dc:title>
      </cc:Work>
    </rdf:RDF>
  </metadata>
  <g
     inkscape:label="Icon"
     inkscape:groupmode="layer"
     id="layer1"
     transform="translate(0,-274.42223)">
    <g
       transform="matrix(1.2578954,0,0,1.2578954,0.63862052,-77.233473)"
       style="display:inline"
       id="g1692">
      <g
         transform="matrix(0.99784646,0,0,0.99784646,-60.859439,31.061722)"
         style="display:inline"
         id="g1044">
        <path
           sodipodi:nodetypes="cccccc"
           id="path1639"
           d="m 69.536581,254.20312 c -0.376511,0.68997 -0.01913,1.12895 0.108477,1.47338 0.127606,0.34442 0.09406,0.61959 0.0243,0.88207 l -2.026165,0.27344 -0.30664,-2.07422 z"
           style="color:#000000;font-style:normal;font-variant:normal;font-weight:normal;font-stretch:normal;font-size:medium;line-height:normal;font-family:sans-serif;font-variant-ligatures:normal;font-variant-position:normal;font-variant-caps:normal;font-variant-numeric:normal;font-variant-alternates:normal;font-variant-east-asian:normal;font-feature-settings:normal;font-variation-settings:normal;text-indent:0;text-align:start;text-decoration:none;text-decoration-line:none;text-decoration-style:solid;text-decoration-color:#000000;letter-spacing:normal;word-spacing:normal;text-transform:none;writing-mode:lr-tb;direction:ltr;text-orientation:mixed;dominant-baseline:auto;baseline-shift:baseline;text-anchor:start;white-space:normal;shape-padding:0;shape-margin:0;inline-size:0;clip-rule:nonzero;display:inline;overflow:visible;visibility:visible;isolation:auto;mix-blend-mode:normal;color-interpolation:sRGB;color-interpolation-filters:linearRGB;solid-color:#000000;solid-opacity:1;vector-effect:none;fill:#fca311;fill-opacity:1;fill-rule:nonzero;stroke:none;stroke-width:0.529167;stroke-linecap:round;stroke-linejoin:round;stroke-miterlimit:4;stroke-dasharray:none;stroke-dashoffset:0;stroke-opacity:1;color-rendering:auto;image-rendering:auto;shape-rendering:auto;text-rendering:auto;enable-background:accumulate;stop-color:#000000" />
        <path
           sodipodi:nodetypes="scccscs"
           id="path1613"
           d="m 73.067057,255.78068 c 1.383897,0 2.898871,1.3565 3.031237,2.8326 l -5.519519,0.61719 -0.12274,-2.02812 c 0.511568,-0.83462 1.844865,-1.42167 2.611027,-1.42167 h -2e-6 z"
           style="color:#000000;font-style:normal;font-variant:normal;font-weight:normal;font-stretch:normal;font-size:medium;line-height:normal;font-family:sans-serif;font-variant-ligatures:normal;font-variant-position:normal;font-variant-caps:normal;font-variant-numeric:normal;font-variant-alternates:normal;font-variant-east-asian:normal;font-feature-settings:normal;font-variation-settings:normal;text-indent:0;text-align:start;text-decoration:none;text-decoration-line:none;text-decoration-style:solid;text-decoration-color:#000000;letter-spacing:normal;word-spacing:normal;text-transform:none;writing-mode:lr-tb;direction:ltr;text-orientation:mixed;dominant-baseline:auto;baseline-shift:baseline;text-anchor:start;white-space:normal;shape-padding:0;shape-margin:0;inline-size:0;clip-rule:nonzero;display:inline;overflow:visible;visibility:visible;isolation:auto;mix-blend-mode:normal;color-interpolation:sRGB;color-interpolation-filters:linearRGB;solid-color:#000000;solid-opacity:1;vector-effect:none;fill:#fca311;fill-opacity:1;fill-rule:nonzero;stroke:none;stroke-width:0.529168;stroke-linecap:round;stroke-linejoin:round;stroke-miterlimit:4;stroke-dasharray:none;stroke-dashoffset:0;stroke-opacity:1;color-rendering:auto;image-rendering:auto;shape-rendering:auto;text-rendering:auto;enable-background:accumulate;stop-color:#000000" />
        <path
           id="path1382"
           d="m 65.660156,264.48438 a 0.26460996,0.26460996 0 0 0 -0.265625,0.26367 v 0.6914 c 0,0.4439 0.366649,0.8086 0.810547,0.8086 h 6.31836 c 0.443898,0 0.808593,-0.3647 0.808593,-0.8086 v -0.6914 a 0.26460996,0.26460996 0 0 0 -0.263672,-0.26367 z"
           style="color:#000000;font-style:normal;font-variant:normal;font-weight:normal;font-stretch:normal;font-size:medium;line-height:normal;font-family:sans-serif;font-variant-ligatures:normal;font-variant-position:normal;font-variant-caps:normal;font-variant-numeric:normal;font-variant-alternates:normal;font-variant-east-asian:normal;font-feature-settings:normal;font-variation-settings:normal;text-indent:0;text-align:start;text-decoration:none;text-decoration-line:none;text-decoration-style:solid;text-decoration-color:#000000;letter-spacing:normal;word-spacing:normal;text-transform:none;writing-mode:lr-tb;direction:ltr;text-orientation:mixed;dominant-baseline:auto;baseline-shift:baseline;text-anchor:start;white-space:normal;shape-padding:0;shape-margin:0;inline-size:0;clip-rule:nonzero;display:inline;overflow:visible;visibility:visible;isolation:auto;mix-blend-mode:normal;color-interpolation:sRGB;color-interpolation-filters:linearRGB;solid-color:#000000;solid-opacity:1;vector-effect:none;fill:#c8dae5;fill-opacity:1;fill-rule:nonzero;stroke:none;stroke-width:0.529167;stroke-linecap:round;stroke-linejoin:round;stroke-miterlimit:4;stroke-dasharray:none;stroke-dashoffset:0;stroke-opacity:1;color-rendering:auto;image-rendering:auto;shape-rendering:auto;text-rendering:auto;enable-background:accumulate;stop-color:#000000" />
        <path
           sodipodi:nodetypes="ccccccccccsc"
           id="path1692"
           d="m 75.994141,249.83984 -6.25,1.67383 c -0.150469,-0.56156 -0.733368,-0.89851 -1.294922,-0.74805 l -3.97461,1.06446 c -0.140599,0.0385 -0.223566,0.18349 -0.185547,0.32422 l 0.820313,3.0664 c 0.03765,0.14139 0.182894,0.22539 0.324219,0.1875 1.324179,-0.35496 2.648386,-0.70983 3.972656,-1.06445 0.561552,-0.15047 0.900469,-0.73531 0.75,-1.29687 l 6.248047,-1.67383 c 0.42042,-0.11265 0.675149,-0.55225 0.5625,-0.97266 -0.112643,-0.42044 -0.55226,-0.67312 -0.972656,-0.56055 z"
           style="color:#000000;font-style:normal;font-variant:normal;font-weight:normal;font-stretch:normal;font-size:medium;line-height:normal;font-family:sans-serif;font-variant-ligatures:normal;font-variant-position:normal;font-variant-caps:normal;font-variant-numeric:normal;font-variant-alternates:normal;font-variant-east-asian:normal;font-feature-settings:normal;font-variation-settings:normal;text-indent:0;text-align:start;text-decoration:none;text-decoration-line:none;text-decoration-style:solid;text-decoration-color:#000000;letter-spacing:normal;word-spacing:normal;text-transform:none;writing-mode:lr-tb;direction:ltr;text-orientation:mixed;dominant-baseline:auto;baseline-shift:baseline;text-anchor:start;white-space:normal;shape-padding:0;shape-margin:0;inline-size:0;clip-rule:nonzero;display:inline;overflow:visible;visibility:visible;isolation:auto;mix-blend-mode:normal;color-interpolation:sRGB;color-interpolation-filters:linearRGB;solid-color:#000000;solid-opacity:1;vector-effect:none;fill:#d0e2ee;fill-opacity:1;fill-rule:nonzero;stroke:none;stroke-width:0.529167;stroke-linecap:round;stroke-linejoin:round;stroke-miterlimit:4;stroke-dasharray:none;stroke-dashoffset:0;stroke-opacity:1;color-rendering:auto;image-rendering:auto;shape-rendering:auto;text-rendering:auto;enable-background:accumulate;stop-color:#000000" />
        <path
           sodipodi:nodetypes="ccccccccccscscc"
           d="m 76.151943,249.81424 c -0.05248,0.003 -0.105063,0.0118 -0.157612,0.0258 l -6.250266,1.6738 c -0.150468,-0.56156 -0.733457,-0.89874 -1.295011,-0.74827 l -3.974436,1.06453 c -0.140597,0.0385 -0.223536,0.18328 -0.185518,0.32401 l 0.02842,0.10542 3.602365,-0.9648 c 0.561555,-0.15046 1.144543,0.18672 1.295012,0.74828 l 6.250265,-1.6738 c 0.420394,-0.11257 0.859906,0.13973 0.97255,0.56017 0.03957,0.14767 0.03149,0.2972 -0.01085,0.4346 0.406178,-0.12258 0.650526,-0.55135 0.54002,-0.96377 -0.09856,-0.36788 -0.44762,-0.60731 -0.814938,-0.58601 z"
           style="color:#000000;font-style:normal;font-variant:normal;font-weight:normal;font-stretch:normal;font-size:medium;line-height:normal;font-family:sans-serif;font-variant-ligatures:normal;font-variant-position:normal;font-variant-caps:normal;font-variant-numeric:normal;font-variant-alternates:normal;font-variant-east-asian:normal;font-feature-settings:normal;font-variation-settings:normal;text-indent:0;text-align:start;text-decoration:none;text-decoration-line:none;text-decoration-style:solid;text-decoration-color:#000000;letter-spacing:normal;word-spacing:normal;text-transform:none;writing-mode:lr-tb;direction:ltr;text-orientation:mixed;dominant-baseline:auto;baseline-shift:baseline;text-anchor:start;white-space:normal;shape-padding:0;shape-margin:0;inline-size:0;clip-rule:nonzero;display:inline;overflow:visible;visibility:visible;isolation:auto;mix-blend-mode:normal;color-interpolation:sRGB;color-interpolation-filters:linearRGB;solid-color:#000000;solid-opacity:1;vector-effect:none;fill:#c0d1db;fill-opacity:1;fill-rule:nonzero;stroke:none;stroke-width:0.529167;stroke-linecap:round;stroke-linejoin:round;stroke-miterlimit:4;stroke-dasharray:none;stroke-dashoffset:0;stroke-opacity:1;color-rendering:auto;image-rendering:auto;shape-rendering:auto;text-rendering:auto;enable-background:accumulate;stop-color:#000000"
           id="path1710" />
        <path
           sodipodi:nodetypes="cccccccscccc"
           id="path1658"
           d="m 67.455458,251.625 c -0.220428,0.54004 -0.244556,1.14252 -0.08131,1.5891 0.163249,0.44657 0.129048,0.84519 -0.02194,1.2023 -0.194973,0.55719 -0.133664,0.90663 0.08373,1.39799 0.09463,0.21571 0.118978,0.44877 0.121094,0.67969 l -1.037582,0.44727 0.0186,-0.6421 c 0.03033,-0.17725 -0.0076,-0.57127 -0.129985,-0.8989 -0.131854,-0.35284 -0.122884,-0.56662 0.02784,-0.89252 0.15072,-0.32591 0.198702,-0.8721 0.03192,-1.34273 -0.166782,-0.47063 -0.148345,-0.93491 0.02419,-1.35064 z"
           style="color:#000000;font-style:normal;font-variant:normal;font-weight:normal;font-stretch:normal;font-size:medium;line-height:normal;font-family:sans-serif;font-variant-ligatures:normal;font-variant-position:normal;font-variant-caps:normal;font-variant-numeric:normal;font-variant-alternates:normal;font-variant-east-asian:normal;font-feature-settings:normal;font-variation-settings:normal;text-indent:0;text-align:start;text-decoration:none;text-decoration-line:none;text-decoration-style:solid;text-decoration-color:#000000;letter-spacing:normal;word-spacing:normal;text-transform:none;writing-mode:lr-tb;direction:ltr;text-orientation:mixed;dominant-baseline:auto;baseline-shift:baseline;text-anchor:start;white-space:normal;shape-padding:0;shape-margin:0;inline-size:0;clip-rule:nonzero;display:inline;overflow:visible;visibility:visible;isolation:auto;mix-blend-mode:normal;color-interpolation:sRGB;color-interpolation-filters:linearRGB;solid-color:#000000;solid-opacity:1;vector-effect:none;fill:#fca311;fill-opacity:1;fill-rule:nonzero;stroke:none;stroke-width:0.529167;stroke-linecap:round;stroke-linejoin:round;stroke-miterlimit:4;stroke-dasharray:none;stroke-dashoffset:0;stroke-opacity:1;color-rendering:auto;image-rendering:auto;shape-rendering:auto;text-rendering:auto;enable-background:accumulate;stop-color:#000000" />
        <path
           d="m 65.660076,264.48415 a 0.26460996,0.26460996 0 0 0 -0.265615,0.26406 v 0.69144 c 0,0.0353 0.0058,0.0687 0.01033,0.10283 h 6.605281 a 0.26460996,0.26460996 0 0 1 0.263552,0.26407 v 0.44131 h 0.249597 c 0.443897,0 0.808736,-0.36431 0.808736,-0.80821 v -0.69144 a 0.26460996,0.26460996 0 0 0 -0.263551,-0.26406 z"
           style="color:#000000;font-style:normal;font-variant:normal;font-weight:normal;font-stretch:normal;font-size:medium;line-height:normal;font-family:sans-serif;font-variant-ligatures:normal;font-variant-position:normal;font-variant-caps:normal;font-variant-numeric:normal;font-variant-alternates:normal;font-variant-east-asian:normal;font-feature-settings:normal;font-variation-settings:normal;text-indent:0;text-align:start;text-decoration:none;text-decoration-line:none;text-decoration-style:solid;text-decoration-color:#000000;letter-spacing:normal;word-spacing:normal;text-transform:none;writing-mode:lr-tb;direction:ltr;text-orientation:mixed;dominant-baseline:auto;baseline-shift:baseline;text-anchor:start;white-space:normal;shape-padding:0;shape-margin:0;inline-size:0;clip-rule:nonzero;display:inline;overflow:visible;visibility:visible;isolation:auto;mix-blend-mode:normal;color-interpolation:sRGB;color-interpolation-filters:linearRGB;solid-color:#000000;solid-opacity:1;vector-effect:none;fill:#bacbd6;fill-opacity:1;fill-rule:nonzero;stroke:none;stroke-width:0.529167;stroke-linecap:round;stroke-linejoin:round;stroke-miterlimit:4;stroke-dasharray:none;stroke-dashoffset:0;stroke-opacity:1;color-rendering:auto;image-rendering:auto;shape-rendering:auto;text-rendering:auto;enable-background:accumulate;stop-color:#000000"
           id="path1747" />
        <path
           id="path1417"
           d="m 63.085938,260.16211 a 0.26460996,0.26460996 0 0 0 -0.261719,0.29687 c 0.232227,1.85484 1.236908,3.46492 2.68164,4.50391 a 0.26460996,0.26460996 0 0 0 0.154297,0.0508 h 7.408203 a 0.26460996,0.26460996 0 0 0 0.154297,-0.0508 c 1.444554,-1.03896 2.449359,-2.64927 2.681641,-4.50391 a 0.26460996,0.26460996 0 0 0 -0.263672,-0.29687 z"
           style="color:#000000;font-style:normal;font-variant:normal;font-weight:normal;font-stretch:normal;font-size:medium;line-height:normal;font-family:sans-serif;font-variant-ligatures:normal;font-variant-position:normal;font-variant-caps:normal;font-variant-numeric:normal;font-variant-alternates:normal;font-variant-east-asian:normal;font-feature-settings:normal;font-variation-settings:normal;text-indent:0;text-align:start;text-decoration:none;text-decoration-line:none;text-decoration-style:solid;text-decoration-color:#000000;letter-spacing:normal;word-spacing:normal;text-transform:none;writing-mode:lr-tb;direction:ltr;text-orientation:mixed;dominant-baseline:auto;baseline-shift:baseline;text-anchor:start;white-space:normal;shape-padding:0;shape-margin:0;inline-size:0;clip-rule:nonzero;display:inline;overflow:visible;visibility:visible;isolation:auto;mix-blend-mode:normal;color-interpolation:sRGB;color-interpolation-filters:linearRGB;solid-color:#000000;solid-opacity:1;vector-effect:none;fill:#a60f0c;fill-opacity:1;fill-rule:nonzero;stroke:none;stroke-width:0.529167;stroke-linecap:round;stroke-linejoin:round;stroke-miterlimit:4;stroke-dasharray:none;stroke-dashoffset:0;stroke-opacity:1;color-rendering:auto;image-rendering:auto;shape-rendering:auto;text-rendering:auto;enable-background:accumulate;stop-color:#000000" />
        <path
           sodipodi:nodetypes="ccccc"
           id="path1582"
           d="m 68.681077,256.58781 c 1.045427,0.0535 1.887381,0.99878 1.994193,2.02973 l -3.486607,0.59325 0.114204,-2.20233 c 0.4459,-0.33474 0.898176,-0.41955 1.37821,-0.42065 z"
           style="color:#000000;font-style:normal;font-variant:normal;font-weight:normal;font-stretch:normal;font-size:medium;line-height:normal;font-family:sans-serif;font-variant-ligatures:normal;font-variant-position:normal;font-variant-caps:normal;font-variant-numeric:normal;font-variant-alternates:normal;font-variant-east-asian:normal;font-feature-settings:normal;font-variation-settings:normal;text-indent:0;text-align:start;text-decoration:none;text-decoration-line:none;text-decoration-style:solid;text-decoration-color:#000000;letter-spacing:normal;word-spacing:normal;text-transform:none;writing-mode:lr-tb;direction:ltr;text-orientation:mixed;dominant-baseline:auto;baseline-shift:baseline;text-anchor:start;white-space:normal;shape-padding:0;shape-margin:0;inline-size:0;clip-rule:nonzero;display:inline;overflow:visible;visibility:visible;isolation:auto;mix-blend-mode:normal;color-interpolation:sRGB;color-interpolation-filters:linearRGB;solid-color:#000000;solid-opacity:1;vector-effect:none;fill:#fca311;fill-opacity:1;fill-rule:nonzero;stroke:none;stroke-width:0.529167;stroke-linecap:round;stroke-linejoin:round;stroke-miterlimit:4;stroke-dasharray:none;stroke-dashoffset:0;stroke-opacity:1;color-rendering:auto;image-rendering:auto;shape-rendering:auto;text-rendering:auto;enable-background:accumulate;stop-color:#000000" />
        <path
           sodipodi:nodetypes="cccccccc"
           d="m 63.086074,260.16193 c -0.158803,3.6e-4 -0.281524,0.13954 -0.262001,0.29714 0.03244,0.25906 0.08148,0.51257 0.143145,0.76119 2.998839,0.002 6.709971,-0.002 9.786653,-0.002 1.155495,2.6e-4 1.995269,0.95069 1.571416,2.02249 -0.226497,0.57274 -0.514777,1.1071 -0.854835,1.53396 1.310873,-1.04008 2.215232,-2.5696 2.43396,-4.31602 0.0196,-0.15822 -0.104125,-0.29771 -0.263549,-0.29714 z"
           style="color:#000000;font-style:normal;font-variant:normal;font-weight:normal;font-stretch:normal;font-size:medium;line-height:normal;font-family:sans-serif;font-variant-ligatures:normal;font-variant-position:normal;font-variant-caps:normal;font-variant-numeric:normal;font-variant-alternates:normal;font-variant-east-asian:normal;font-feature-settings:normal;font-variation-settings:normal;text-indent:0;text-align:start;text-decoration:none;text-decoration-line:none;text-decoration-style:solid;text-decoration-color:#000000;letter-spacing:normal;word-spacing:normal;text-transform:none;writing-mode:lr-tb;direction:ltr;text-orientation:mixed;dominant-baseline:auto;baseline-shift:baseline;text-anchor:start;white-space:normal;shape-padding:0;shape-margin:0;inline-size:0;clip-rule:nonzero;display:inline;overflow:visible;visibility:visible;isolation:auto;mix-blend-mode:normal;color-interpolation:sRGB;color-interpolation-filters:linearRGB;solid-color:#000000;solid-opacity:1;vector-effect:none;fill:#940f0c;fill-opacity:1;fill-rule:nonzero;stroke:none;stroke-width:0.529167;stroke-linecap:round;stroke-linejoin:round;stroke-miterlimit:4;stroke-dasharray:none;stroke-dashoffset:0;stroke-opacity:1;color-rendering:auto;image-rendering:auto;shape-rendering:auto;text-rendering:auto;enable-background:accumulate;stop-color:#000000"
           id="path1732" />
        <path
           sodipodi:nodetypes="cccc"
           style="color:#000000;font-style:normal;font-variant:normal;font-weight:normal;font-stretch:normal;font-size:medium;line-height:normal;font-family:sans-serif;font-variant-ligatures:normal;font-variant-position:normal;font-variant-caps:normal;font-variant-numeric:normal;font-variant-alternates:normal;font-variant-east-asian:normal;font-feature-settings:normal;font-variation-settings:normal;text-indent:0;text-align:start;text-decoration:none;text-decoration-line:none;text-decoration-style:solid;text-decoration-color:#000000;letter-spacing:normal;word-spacing:normal;text-transform:none;writing-mode:lr-tb;direction:ltr;text-orientation:mixed;dominant-baseline:auto;baseline-shift:baseline;text-anchor:start;white-space:normal;shape-padding:0;shape-margin:0;inline-size:0;clip-rule:nonzero;display:inline;overflow:visible;visibility:visible;isolation:auto;mix-blend-mode:normal;color-interpolation:sRGB;color-interpolation-filters:linearRGB;solid-color:#000000;solid-opacity:1;vector-effect:none;fill:#fca311;fill-opacity:1;fill-rule:nonzero;stroke:none;stroke-width:0.529167;stroke-linecap:round;stroke-linejoin:round;stroke-miterlimit:4;stroke-dasharray:none;stroke-dashoffset:0;stroke-opacity:1;color-rendering:auto;image-rendering:auto;shape-rendering:auto;text-rendering:auto;enable-background:accumulate;stop-color:#000000"
           d="m 67.495106,258.57578 h -4.729427 c 0.127685,-1.15436 1.07528,-2.17475 2.333649,-2.2045 1.258369,-0.0298 2.263859,1.01271 2.395778,2.2045 z"
           id="path1513" />
        <path
           id="path1433"
           d="m 62.484375,258.57617 a 0.26460996,0.26460996 0 0 0 -0.263672,0.26367 v 1.04297 c 0,0.44392 0.364673,0.8086 0.808594,0.8086 h 12.667969 c 0.44392,0 0.810547,-0.36468 0.810546,-0.8086 v -1.04297 a 0.26460996,0.26460996 0 0 0 -0.265624,-0.26367 z"
           style="color:#000000;font-style:normal;font-variant:normal;font-weight:normal;font-stretch:normal;font-size:medium;line-height:normal;font-family:sans-serif;font-variant-ligatures:normal;font-variant-position:normal;font-variant-caps:normal;font-variant-numeric:normal;font-variant-alternates:normal;font-variant-east-asian:normal;font-feature-settings:normal;font-variation-settings:normal;text-indent:0;text-align:start;text-decoration:none;text-decoration-line:none;text-decoration-style:solid;text-decoration-color:#000000;letter-spacing:normal;word-spacing:normal;text-transform:none;writing-mode:lr-tb;direction:ltr;text-orientation:mixed;dominant-baseline:auto;baseline-shift:baseline;text-anchor:start;white-space:normal;shape-padding:0;shape-margin:0;inline-size:0;clip-rule:nonzero;display:inline;overflow:visible;visibility:visible;isolation:auto;mix-blend-mode:normal;color-interpolation:sRGB;color-interpolation-filters:linearRGB;solid-color:#000000;solid-opacity:1;vector-effect:none;fill:#c8dae5;fill-opacity:1;fill-rule:nonzero;stroke:none;stroke-width:0.529167;stroke-linecap:round;stroke-linejoin:round;stroke-miterlimit:4;stroke-dasharray:none;stroke-dashoffset:0;stroke-opacity:1;color-rendering:auto;image-rendering:auto;shape-rendering:auto;text-rendering:auto;enable-background:accumulate;stop-color:#000000" />
        <path
           d="m 62.48456,258.57598 a 0.26460996,0.26460996 0 0 0 -0.264067,0.26407 v 0.79427 h 12.963551 a 0.26460996,0.26460996 0 0 1 0.265616,0.26406 v 0.79323 h 0.247531 c 0.44392,0 0.810805,-0.36481 0.810802,-0.80873 v -1.04283 a 0.26460996,0.26460996 0 0 0 -0.265615,-0.26407 z"
           style="color:#000000;font-style:normal;font-variant:normal;font-weight:normal;font-stretch:normal;font-size:medium;line-height:normal;font-family:sans-serif;font-variant-ligatures:normal;font-variant-position:normal;font-variant-caps:normal;font-variant-numeric:normal;font-variant-alternates:normal;font-variant-east-asian:normal;font-feature-settings:normal;font-variation-settings:normal;text-indent:0;text-align:start;text-decoration:none;text-decoration-line:none;text-decoration-style:solid;text-decoration-color:#000000;letter-spacing:normal;word-spacing:normal;text-transform:none;writing-mode:lr-tb;direction:ltr;text-orientation:mixed;dominant-baseline:auto;baseline-shift:baseline;text-anchor:start;white-space:normal;shape-padding:0;shape-margin:0;inline-size:0;clip-rule:nonzero;display:inline;overflow:visible;visibility:visible;isolation:auto;mix-blend-mode:normal;color-interpolation:sRGB;color-interpolation-filters:linearRGB;solid-color:#000000;solid-opacity:1;vector-effect:none;fill:#bacbd6;fill-opacity:1;fill-rule:nonzero;stroke:none;stroke-width:0.529167;stroke-linecap:round;stroke-linejoin:round;stroke-miterlimit:4;stroke-dasharray:none;stroke-dashoffset:0;stroke-opacity:1;color-rendering:auto;image-rendering:auto;shape-rendering:auto;text-rendering:auto;enable-background:accumulate;stop-color:#000000"
           id="path1727" />
        <path
           id="path945"
           style="color:#000000;font-style:normal;font-variant:normal;font-weight:normal;font-stretch:normal;font-size:medium;line-height:normal;font-family:sans-serif;font-variant-ligatures:normal;font-variant-position:normal;font-variant-caps:normal;font-variant-numeric:normal;font-variant-alternates:normal;font-variant-east-asian:normal;font-feature-settings:normal;font-variation-settings:normal;text-indent:0;text-align:start;text-decoration:none;text-decoration-line:none;text-decoration-style:solid;text-decoration-color:#000000;letter-spacing:normal;word-spacing:normal;text-transform:none;writing-mode:lr-tb;direction:ltr;text-orientation:mixed;dominant-baseline:auto;baseline-shift:baseline;text-anchor:start;white-space:normal;shape-padding:0;shape-margin:0;inline-size:0;clip-rule:nonzero;display:inline;overflow:visible;visibility:visible;opacity:1;isolation:auto;mix-blend-mode:normal;color-interpolation:sRGB;color-interpolation-filters:linearRGB;solid-color:#000000;solid-opacity:1;vector-effect:none;fill:#000000;fill-opacity:1;fill-rule:nonzero;stroke:none;stroke-width:0.529167;stroke-linecap:round;stroke-linejoin:round;stroke-miterlimit:4;stroke-dasharray:none;stroke-dashoffset:0;stroke-opacity:1;color-rendering:auto;image-rendering:auto;shape-rendering:auto;text-rendering:auto;enable-background:accumulate;stop-color:#000000;stop-opacity:1"
           d="m 76.506961,258.81648 c -0.0127,-1.88572 -1.549895,-3.41633 -3.438552,-3.41633 -1.145656,0 -2.162283,0.56162 -2.787425,1.42523 -0.05973,-0.0509 -0.121923,-0.0987 -0.186036,-0.14417 0.06198,-0.39315 0.06231,-0.781 -0.03618,-1.10123 -0.193281,-0.4832 -0.345306,-1.03839 -0.187585,-1.39681 0.316706,-0.24003 0.372052,-0.78661 0.285253,-1.13637 l 6.247681,-1.67431 c 0.42042,-0.11265 0.675407,-0.55214 0.562758,-0.97255 -0.136618,-0.48722 -0.507318,-0.67717 -0.97255,-0.56016 l -6.250266,1.6738 c -0.150469,-0.56156 -0.733457,-0.89874 -1.295011,-0.74828 l -3.974436,1.06454 c -0.140494,0.0385 -0.223422,0.18335 -0.185518,0.32401 0.0376,0.14133 0.182727,0.22535 0.324011,0.18758 l 1.354955,-0.36328 c -0.04182,0.1847 -0.05802,0.37338 -0.05271,0.56172 l -1.144116,0.30541 c -0.14075,0.0385 -0.22375,0.1837 -0.185518,0.32453 0.03782,0.14137 0.183232,0.22519 0.324527,0.18707 l 1.082104,-0.28939 c 0.0622,0.17096 0.103624,0.3472 0.133842,0.51263 l -1.079521,0.28887 c -0.141121,0.0378 -0.224867,0.18288 -0.187069,0.32401 0.03852,0.14049 0.183354,0.22342 0.324012,0.18552 l 0.889352,-0.23771 c -0.09558,0.19538 -0.146283,0.39237 -0.182417,0.59634 l -0.593762,0.15917 c -0.14133,0.0376 -0.225351,0.18272 -0.187587,0.32401 0.03759,0.14158 0.183076,0.22568 0.324527,0.18758 l 0.484209,-0.12971 c 0.02098,0.0991 0.05021,0.20123 0.08992,0.30748 0.05312,0.14216 0.08351,0.32138 0.08888,0.51211 -0.302848,-0.10712 -0.626832,-0.16846 -0.965833,-0.16846 -1.598138,0 -2.899494,1.29647 -2.909382,2.89233 -1.85e-4,0.002 -2.64e-4,0.003 -5.29e-4,0.005 -2.1e-5,0.005 -5.29e-4,0.009 -5.29e-4,0.0134 v 1.04283 c 0,0.38466 0.274222,0.70914 0.636138,0.7891 0.272481,1.71644 1.208585,3.20703 2.53783,4.20647 v 0.5612 c 0,0.4439 0.366903,0.80822 0.810803,0.80822 h 6.317961 c 0.443897,0 0.808736,-0.36432 0.808736,-0.80822 v -0.55965 c 1.330447,-0.99962 2.267426,-2.49145 2.539897,-4.20905 0.361214,-0.0808 0.636138,-0.40419 0.636135,-0.78807 z m -8.874956,-6.1893 c 0.238485,-0.064 0.477152,-0.12782 0.715719,-0.19172 0.141586,-0.0376 0.225679,-0.18307 0.187584,-0.32453 -0.03131,-0.11545 -0.136181,-0.19553 -0.255799,-0.19533 -0.206256,0.0352 -0.42654,0.10572 -0.604613,0.15347 0.05524,-0.22079 0.144026,-0.39765 0.238229,-0.61184 l 0.672827,-0.18036 c 0.285319,-0.0764 0.570018,0.0878 0.646472,0.37311 l 0.06821,0.2558 c 0.0376,0.14157 0.183076,0.22566 0.324528,0.18758 l 6.505546,-1.74201 c 0.16815,-0.0321 0.281649,0.0372 0.324572,0.18553 0.03863,0.14417 -0.04341,0.28538 -0.187584,0.32401 l -6.503996,1.74408 c -0.141578,0.0376 -0.225668,0.18308 -0.187587,0.32453 l 0.06821,0.25373 c 0.04698,0.17535 0.0021,0.35075 -0.09075,0.45748 -0.09287,0.10673 -0.180094,0.16324 -0.283903,0.19106 l -1.489316,0.40049 c 0.04912,-0.18456 0.07092,-0.37481 0.06511,-0.56534 l 0.775663,-0.20825 c 0.14133,-0.0376 0.225349,-0.18273 0.187585,-0.32402 -0.03037,-0.11571 -0.134615,-0.19665 -0.254246,-0.1974 -0.263311,0.0469 -0.532535,0.13394 -0.79582,0.20464 -0.07274,-0.1707 -0.09936,-0.36025 -0.126655,-0.51471 z m -0.369443,-0.99579 c -0.0981,0.28048 -0.153504,0.55017 -0.165876,0.80666 0.0066,0.2951 0.08644,0.68145 0.153477,0.85474 0.133207,0.52459 -0.03547,0.86976 -0.152445,1.30069 -0.09838,0.49489 -0.02252,0.78996 0.167947,1.2206 0.09073,0.20681 0.137261,0.42762 0.143145,0.64906 -0.121499,0.0596 -0.238199,0.12749 -0.3483,0.20412 -0.136491,-0.12138 -0.284284,-0.22972 -0.441833,-0.32401 0.02782,-0.33796 -0.01072,-0.66478 -0.114721,-0.9431 -0.128211,-0.34309 -0.121954,-0.55488 -0.0553,-0.7798 0.234498,-0.4604 0.278453,-0.99462 0.121441,-1.48776 -0.118504,-0.46296 -0.143562,-0.94524 0.0036,-1.31671 z m -4.938207,0.61807 c -0.140359,0.0442 -0.217681,0.19443 -0.172083,0.33435 0.117081,0.36772 0.0808,0.76633 -0.09147,1.19517 -0.172272,0.42885 -0.123057,0.9404 0.111112,1.37521 0.06927,0.12818 0.229137,0.17623 0.3576,0.10749 0.12921,-0.0695 0.1772,-0.23086 0.106972,-0.35967 -0.164098,-0.3047 -0.199332,-0.66131 -0.101286,-0.99271 0.233588,-0.46001 0.277704,-0.99536 0.120923,-1.48776 -0.05989,-0.17928 -0.20338,-0.20271 -0.331766,-0.17208 z m 1.083654,0 c -0.14015,0.0444 -0.217205,0.19459 -0.171564,0.33435 0.117081,0.36772 0.0808,0.76633 -0.09147,1.19517 -0.172276,0.42885 -0.123058,0.9404 0.111109,1.37521 0.06926,0.12788 0.228743,0.17588 0.357084,0.10749 0.1294,-0.0693 0.177636,-0.23072 0.107487,-0.35967 -0.164176,-0.30485 -0.199511,-0.66169 -0.101285,-0.99322 0.233389,-0.45992 0.277654,-0.99501 0.120923,-1.48725 -0.07631,-0.20013 -0.213757,-0.19832 -0.33228,-0.17208 z m 5.873551,2.1275 c -0.05758,0.49239 0.121939,0.98916 0.280604,1.38647 0.06589,0.20994 0.07853,0.42943 0.04651,0.64286 -0.174977,-0.0751 -0.360042,-0.13049 -0.551905,-0.1664 -0.01685,-0.25902 -0.07738,-0.51537 -0.183967,-0.75758 l -0.128675,-0.29145 c -0.056,-0.22158 -0.05159,-0.45197 0.01085,-0.67334 z m -1.092438,0.29197 c -0.01635,0.25634 1.4e-4,0.49076 0.05684,0.70383 l 0.142626,0.32246 c 0.07054,0.1603 0.112882,0.32884 0.132292,0.49971 -0.2052,0.004 -0.404701,0.0318 -0.596344,0.0801 -0.02371,-0.23088 -0.07941,-0.45947 -0.174668,-0.67593 -0.150688,-0.24277 -0.160737,-0.52584 -0.157096,-0.77049 z m 4.879287,1.26039 c 1.521367,0 2.763414,1.16036 2.896465,2.64635 h -0.531233 c -0.131884,-1.18845 -1.142418,-2.11719 -2.365232,-2.11719 -0.909952,0 -1.702154,0.5148 -2.102712,1.26762 -0.08434,-0.18085 -0.187815,-0.35046 -0.309026,-0.50642 0.522655,-0.77584 1.403893,-1.29036 2.411738,-1.29036 z m -7.9375,0.52916 c 1.229027,0 2.234557,0.92388 2.365232,2.11719 h -0.534852 c -0.129003,-0.89526 -0.900401,-1.5875 -1.83038,-1.5875 -0.929979,0 -1.703157,0.69224 -1.832446,1.5875 h -0.533299 c 0.130669,-1.19331 1.136718,-2.11719 2.365745,-2.11719 z m 3.439583,0.26407 c 1.42199,0 1.984,1.0865 2.099099,1.85312 h -0.535369 c -0.126711,-0.74891 -0.780097,-1.32395 -1.56373,-1.32395 -0.314666,0 -0.608621,0.0945 -0.856279,0.25373 -0.08176,-0.15761 -0.17767,-0.30625 -0.285768,-0.44545 0.329393,-0.21234 0.719735,-0.33745 1.142047,-0.33745 z m 4.497917,0.26562 c 0.936128,0 1.702776,0.6878 1.83038,1.5875 h -0.53485 c -0.122989,-0.60223 -0.658239,-1.05834 -1.29553,-1.05834 -0.637291,0 -1.174234,0.45611 -1.297593,1.05834 h -0.534853 c 0.127889,-0.8997 0.896324,-1.5875 1.832446,-1.5875 z m -7.9375,0.52916 c 0.643297,0 1.174732,0.45235 1.296046,1.05834 h -0.552421 c -0.11008,-0.30627 -0.401291,-0.52917 -0.743625,-0.52917 -0.342371,-10e-6 -0.635124,0.22285 -0.745691,0.52917 h -0.552421 c 0.121682,-0.60599 0.654815,-1.05834 1.298112,-1.05834 z m 3.439583,0.26355 c 0.495851,0 0.904793,0.33699 1.021644,0.79479 h -0.566891 c -0.0925,-0.15716 -0.261758,-0.26562 -0.454753,-0.26562 -0.192934,0 -0.362235,0.10854 -0.454752,0.26562 h -0.08837 c -0.01762,-0.19452 -0.05384,-0.38365 -0.108006,-0.56534 0.179713,-0.1417 0.403149,-0.22945 0.651124,-0.22945 z m 4.497917,0.26562 c 0.348343,0 0.637842,0.22001 0.745691,0.52917 h -1.492932 c 0.108362,-0.30916 0.398901,-0.52917 0.747241,-0.52917 z m -10.318231,1.05885 H 75.97831 v 0.77721 c 0,0.15794 -0.123182,0.27906 -0.28112,0.27906 H 63.029228 c -0.157935,0 -0.27905,-0.12112 -0.27905,-0.27906 z m 0.701249,1.58595 H 75.27551 c -0.277995,1.54199 -1.088585,2.89651 -2.297017,3.79253 h -7.228499 c -1.208637,-0.89604 -2.020604,-2.25038 -2.298567,-3.79253 z m 10.683584,0.61288 c -0.162613,0.41105 -0.356389,0.7585 -0.580327,1.10949 -0.08013,0.12344 -0.04414,0.28854 0.0801,0.36742 0.123558,0.0783 0.287226,0.0415 0.365353,-0.0822 0.234643,-0.36777 0.448556,-0.75031 0.626835,-1.20096 0.05433,-0.136 -0.01215,-0.29026 -0.148313,-0.34417 -0.159326,-0.0498 -0.285022,0.0265 -0.343648,0.15038 z m -1.760099,2.35386 c -0.114718,0.0901 -0.134829,0.25612 -0.04496,0.37104 0.08951,0.11538 0.255572,0.13643 0.371036,0.047 0.184446,-0.14441 0.366374,-0.30093 0.543118,-0.47284 0.105574,-0.10186 0.108125,-0.27017 0.0057,-0.37518 -0.150564,-0.11561 -0.285308,-0.0918 -0.374655,-0.004 z m -6.451285,1.35548 h 6.879167 v 0.42581 c 0,0.15792 -0.121656,0.27905 -0.279569,0.27905 h -6.317962 c -0.157914,0 -0.281636,-0.12113 -0.281636,-0.27905 z"
           sodipodi:nodetypes="cscccccccccccccccccccccccccccccscsccssccsssscccccccccccccccccccccccccccccccccccscccccccccccccccccccccccccccccccccccccscccccsscccccscccccccscccccsscccccssccccccssccsccscsscccccccccccccccccccccccsscssss" />
      </g>
    </g>
  </g>
</svg>
