<?xml version="1.0" ?><svg id="Layer_1" style="enable-background:new 0 0 128 128;" version="1.1" viewBox="0 0 128 128" xml:space="preserve" xmlns="http://www.w3.org/2000/svg" xmlns:xlink="http://www.w3.org/1999/xlink"><style type="text/css">
	.st0{fill:#581166;}
	.st1{fill:#E83A3A;}
	.st2{fill:#FF5855;}
	.st3{opacity:0.5;}
	.st4{fill:#FFDA8E;}
	.st5{fill:#FFFFFF;}
	.st6{fill:#EABA65;}
	.st7{fill:#E6E6E6;}
	.st8{fill:#460A54;}
	.st9{fill:none;}
	.st10{fill:none;stroke:#581166;stroke-width:2;stroke-linecap:round;stroke-linejoin:round;stroke-miterlimit:10;}
	.st11{fill:#F2F2F2;}
</style><g><g><g><g><polygon class="st2" points="60.8,73.9 102.1,32.7 19.6,32.7     "/></g></g></g><g><g><g><polygon class="st9" points="85.2,49.5 60.8,73.9 36.4,49.5     "/></g></g></g><g><g><g><path class="st0" d="M85.2,51.4H36.4c-0.5,0-1-0.2-1.3-0.5L18.3,34c-0.5-0.5-0.7-1.3-0.4-2c0.3-0.7,1-1.2,1.7-1.2h82.5      c0.8,0,1.4,0.5,1.7,1.2c0.3,0.7,0.1,1.5-0.4,2L86.5,50.8C86.2,51.2,85.7,51.4,85.2,51.4z M37.2,47.6h47.2l13.1-13.1H24.1      L37.2,47.6z"/></g></g></g><g><g><g><polygon class="st5" points="102.1,32.7 85.2,49.5 36.4,49.5 19.6,32.7     "/></g></g></g><g><g><g><path class="st0" d="M85.2,51.4H36.4c-0.5,0-1-0.2-1.3-0.5L18.3,34c-0.5-0.5-0.7-1.3-0.4-2c0.3-0.7,1-1.2,1.7-1.2h82.5      c0.8,0,1.4,0.5,1.7,1.2c0.3,0.7,0.1,1.5-0.4,2L86.5,50.8C86.2,51.2,85.7,51.4,85.2,51.4z M37.2,47.6h47.2l13.1-13.1H24.1      L37.2,47.6z"/></g></g></g><g><g><g><path class="st0" d="M60.8,75.8c-0.5,0-1-0.2-1.3-0.5L18.3,34c-0.5-0.5-0.7-1.3-0.4-2c0.3-0.7,1-1.2,1.7-1.2h82.5      c0.8,0,1.4,0.5,1.7,1.2c0.3,0.7,0.1,1.5-0.4,2L62.1,75.2C61.8,75.6,61.3,75.8,60.8,75.8z M24.1,34.5l36.7,36.7l36.7-36.7H24.1z"/></g></g></g><g><g><g><path class="st0" d="M60.8,111.8c-1,0-1.9-0.8-1.9-1.9V73.9c0-1,0.8-1.9,1.9-1.9c1,0,1.9,0.8,1.9,1.9V110      C62.7,111,61.9,111.8,60.8,111.8z"/></g></g></g><g><g><g><path class="st0" d="M76.3,111.8H45.4c-1,0-1.9-0.8-1.9-1.9c0-1,0.8-1.9,1.9-1.9h30.9c1,0,1.9,0.8,1.9,1.9      C78.1,111,77.3,111.8,76.3,111.8z"/></g></g></g><g><g><g><g><circle class="st4" cx="96.1" cy="32.9" r="10.8"/></g></g></g><g><g><g><path class="st0" d="M96.1,45.7c-7,0-12.7-5.7-12.7-12.7S89,20.2,96.1,20.2c7,0,12.7,5.7,12.7,12.7S103.1,45.7,96.1,45.7z        M96.1,24c-4.9,0-9,4-9,9c0,4.9,4,9,9,9c4.9,0,9-4,9-9C105,28,101,24,96.1,24z"/></g></g></g><g><g><g><path class="st0" d="M100.2,30.8c-0.4,0-0.9-0.2-1.2-0.5c-0.8-0.7-0.9-1.9-0.2-2.6L108.9,16c0.7-0.8,1.9-0.9,2.6-0.2       c0.8,0.7,0.9,1.9,0.2,2.6l-10.1,11.7C101.3,30.6,100.7,30.8,100.2,30.8z"/></g></g></g></g><g class="st3"><g><g><polyline class="st0" points="47.4,61.7 73,61.7 60.8,73.9     "/></g></g></g><g><g><g><path class="st0" d="M46.6,51.4c-0.5,0-1-0.2-1.3-0.6L19.5,24.4c-0.7-0.7-0.7-1.9,0-2.6c0.7-0.7,1.9-0.7,2.6,0l25.8,26.4      c0.7,0.7,0.7,1.9,0,2.6C47.5,51.2,47.1,51.4,46.6,51.4z"/></g></g></g></g></svg>